<svg width="36" height="36" viewBox="0 0 36 36" fill="none" xmlns="http://www.w3.org/2000/svg">
<path d="M25.2842 6.33334H10.7009C5.11549 6.33334 3.55508 7.67501 3.42383 12.8958C6.23841 12.8958 8.51341 15.1854 8.51341 18C8.51341 20.8146 6.23841 23.0896 3.42383 23.1042C3.55508 28.325 5.11549 29.6667 10.7009 29.6667H25.2842C31.1176 29.6667 32.5759 28.2083 32.5759 22.375V13.625C32.5759 7.79168 31.1176 6.33334 25.2842 6.33334Z" stroke="#8B8B8B" stroke-width="1.5" stroke-linecap="round" stroke-linejoin="round"/>
<path d="M13.6152 6.33334V11.4375" stroke="#8B8B8B" stroke-width="1.5" stroke-linecap="round" stroke-linejoin="round"/>
<path d="M13.6152 24.5625V29.6667" stroke="#8B8B8B" stroke-width="1.5" stroke-linecap="round" stroke-linejoin="round"/>
<path d="M22.4115 14.1062L23.3157 15.9292C23.4032 16.1042 23.5782 16.2354 23.7678 16.2646L25.7803 16.5562C26.2761 16.6292 26.4803 17.2417 26.1157 17.5917L24.6574 19.0062C24.5115 19.1375 24.4532 19.3417 24.4824 19.5458L24.8324 21.5437C24.9199 22.0396 24.3949 22.4187 23.9574 22.1854L22.1636 21.2375C21.9886 21.15 21.7699 21.15 21.5949 21.2375L19.8011 22.1854C19.349 22.4187 18.8386 22.0396 18.9261 21.5437L19.2761 19.5458C19.3053 19.3417 19.2469 19.1521 19.1011 19.0062L17.6574 17.5917C17.2928 17.2417 17.4969 16.6292 17.9928 16.5562L20.0053 16.2646C20.2094 16.2354 20.3699 16.1187 20.4574 15.9292L21.3469 14.1062C21.5511 13.6542 22.1928 13.6542 22.4115 14.1062Z" stroke="#8B8B8B" stroke-width="1.5" stroke-linecap="round" stroke-linejoin="round"/>
</svg>
